<?xml version="1.0" encoding="UTF-8"?>
<svg viewBox="0 0 3978.47 2106.27" xmlns="http://www.w3.org/2000/svg">
  <g id="base-fills">
    <path d="M 2532.89,322.95 C 2681.32,692.77 2410.57,1061.29 1445.13,1797.14 L 1460.9,1833.3 C 2441.28,1031.89 2704.06,645.38 2517.11,286.82 Z" data-between="1-2" fill="none" stroke="#000" stroke-miterlimit="10" />
    <path d="M 2517.11,286.82 C 2704.06,645.38 2441.28,1031.89 1460.9,1833.3 L 1480.51,1868.27 C 2472.01,1000.43 2724.88,596.53 2497.46,251.88 Z" data-between="2-3" fill="none" stroke="#000" stroke-miterlimit="10" />
    <path d="M 2497.46,251.88 C 2724.88,596.53 2472.01,1000.43 1480.51,1868.27 L 1504.18,1901.79 C 2502.62,966.9 2743.57,546.34 2473.77,218.4 Z" data-between="3-4" fill="none" stroke="#000" stroke-miterlimit="10" />
    <path d="M 2473.77,218.4 C 2743.57,546.34 2502.62,966.9 1504.18,1901.79 L 1532.09,1933.58 C 2532.93,931.31 2759.85,494.98 2445.85,186.65 Z" data-between="4-5" fill="none" stroke="#000" stroke-miterlimit="10" />
    <path d="M 2445.85,186.65 C 2759.85,494.98 2532.93,931.31 1532.09,1933.58 L 1564.41,1963.33 C 2562.79,893.7 2773.45,442.59 2413.52,156.92 Z" data-between="5-6" fill="none" stroke="#000" stroke-miterlimit="10" />
    <path d="M 2413.52,156.92 C 2773.45,442.59 2562.79,893.7 1564.41,1963.33 L 1601.29,1990.77 C 2591.97,854.1 2784.11,389.4 2376.6,129.53 Z" data-between="6-7" fill="none" stroke="#000" stroke-miterlimit="10" />
    <path d="M 2376.6,129.53 C 2784.11,389.4 2591.97,854.1 1601.29,1990.77 L 1642.92,2015.56 C 2620.32,812.55 2791.56,335.58 2334.95,104.77 Z" data-between="7-8" fill="none" stroke="#000" stroke-miterlimit="10" />
    <path d="M 2334.95,104.77 C 2791.56,335.58 2620.32,812.55 1642.92,2015.56 L 1689.44,2037.39 C 2647.61,769.13 2795.51,281.37 2288.42,82.98 Z" data-between="8-9" fill="none" stroke="#000" stroke-miterlimit="10" />
    <path d="M 2288.42,82.98 C 2795.51,281.37 2647.61,769.13 1689.44,2037.39 L 1740.98,2055.92 C 2673.63,723.91 2795.69,227.03 2236.88,64.49 Z" data-between="9-10" fill="none" stroke="#000" stroke-miterlimit="10" />
    <path d="M 2236.88,64.49 C 2795.69,227.03 2673.63,723.91 1740.98,2055.92 L 1797.64,2070.81 C 2698.14,676.99 2791.8,172.8 2180.2,49.64 Z" data-between="10-11" fill="none" stroke="#000" stroke-miterlimit="10" />
    <path d="M 2180.2,49.64 C 2791.8,172.8 2698.14,676.99 1797.64,2070.81 L 1859.54,2081.72 C 2720.91,628.47 2783.56,118.98 2118.29,38.78 Z" data-between="11-12" fill="none" stroke="#000" stroke-miterlimit="10" />
    <path d="M 2118.29,38.78 C 2783.56,118.98 2720.91,628.47 1859.54,2081.72 L 1926.76,2088.28 C 2741.71,578.49 2770.69,65.87 2051.07,32.27 Z" data-between="12-13" fill="none" stroke="#000" stroke-miterlimit="10" />
    <path d="M 2051.07,32.27 C 2770.69,65.87 2741.71,578.49 1926.76,2088.28 L 1999.34,2090.13 C 2760.25,527.17 2752.89,13.78 1978.47,30.46 Z" data-between="13-14" fill="none" stroke="#000" stroke-miterlimit="10" />
    <path d="M 1978.47,30.46 C 2752.89,13.78 2760.25,527.17 1999.34,2090.13 L 2077.35,2086.92 C 2776.3,474.69 2729.9,-36.94 1900.47,33.72 Z" data-between="14-15" fill="none" stroke="#000" stroke-miterlimit="10" />
    <path d="M 1900.47,33.72 C 2729.9,-36.94 2776.3,474.69 2077.35,2086.92 L 2160.77,2078.27 C 2789.58,421.21 2701.43,-85.94 1817.04,42.41 Z" data-between="15-16" fill="none" stroke="#000" stroke-miterlimit="10" />
    <path d="M 1817.04,42.41 C 2701.43,-85.94 2789.58,421.21 2160.77,2078.27 L 2249.62,2063.82 C 2799.81,366.93 2667.22,-132.83 1728.21,56.9 Z" data-between="16-17" fill="none" stroke="#000" stroke-miterlimit="10" />
    <path d="M 1728.21,56.9 C 2667.22,-132.83 2799.81,366.93 2249.62,2063.82 L 2343.83,2043.21 C 2806.72,312.08 2627.01,-177.22 1634.01,77.55 Z" data-between="17-18" fill="none" stroke="#000" stroke-miterlimit="10" />
    <path d="M 1634.01,77.55 C 2627.01,-177.22 2806.72,312.08 2343.83,2043.21 L 2443.34,2016.08 C 2810.01,256.87 2580.54,-218.7 1534.51,104.72 Z" data-between="18-19" fill="none" stroke="#000" stroke-miterlimit="10" />
    <path d="M 1534.51,104.72 C 2580.54,-218.7 2810.01,256.87 2443.34,2016.08 L 2548.04,1982.08 C 2809.4,201.58 2527.58,-256.83 1429.82,138.77 Z" data-between="19-20" fill="none" stroke="#000" stroke-miterlimit="10" />
    <path d="M 1429.82,138.77 C 2527.58,-256.83 2809.4,201.58 2548.04,1982.08 L 2657.81,1940.85 C 2804.6,146.46 2467.93,-291.17 1320.09,180.04 Z" data-between="20-21" fill="none" stroke="#000" stroke-miterlimit="10" />
    <path d="M 1320.09,180.04 C 2467.93,-291.17 2804.6,146.46 2657.81,1940.85 L 2772.45,1892.07 C 2795.31,91.81 2401.36,-321.27 1205.47,228.86 Z" data-between="21-22" fill="none" stroke="#000" stroke-miterlimit="10" />
    <path d="M 1205.47,228.86 C 2401.36,-321.27 2795.31,91.81 2772.45,1892.07 L 2891.76,1835.41 C 2781.25,37.94 2327.7,-346.65 1086.19,285.56 Z" data-between="22-23" fill="none" stroke="#000" stroke-miterlimit="10" />
    <path d="M 1086.19,285.56 C 2327.7,-346.65 2781.25,37.94 2891.76,1835.41 L 3015.5,1770.55 C 2762.14,-14.83 2246.78,-366.84 962.5,350.43 Z" data-between="23-24" fill="none" stroke="#000" stroke-miterlimit="10" />
    <path d="M 962.5,350.43 C 2246.78,-366.84 2762.14,-14.83 3015.5,1770.55 L 3143.34,1697.25 C 2737.66,-66.12 2158.46,-381.32 834.68,423.79 Z" data-between="24-25" fill="none" stroke="#000" stroke-miterlimit="10" />
    <path d="M 834.68,423.79 C 2158.46,-381.32 2737.66,-66.12 3143.34,1697.25 L 3274.99,1615.18 C 2707.58,-115.59 2062.66,-389.62 703.09,505.87 Z" data-between="25-26" fill="none" stroke="#000" stroke-miterlimit="10" />
    <path d="M 703.09,505.87 C 2062.66,-389.62 2707.58,-115.59 3274.99,1615.18 L 3410.05,1524.14 C 2671.59,-162.83 1959.26,-391.21 568.09,596.94 Z" data-between="26-27" fill="none" stroke="#000" stroke-miterlimit="10" />
    <path d="M 568.09,596.94 C 1959.26,-391.21 2671.59,-162.83 3410.05,1524.14 L 3548.08,1423.9 C 2629.44,-207.45 1848.23,-385.59 430.11,697.2 Z" data-between="27-28" fill="none" stroke="#000" stroke-miterlimit="10" />
    <path d="M 430.11,697.2 C 1848.23,-385.59 2629.44,-207.45 3548.08,1423.9 L 3688.63,1314.27 C 2580.88,-249.02 1729.56,-372.23 289.63,806.84 Z" data-between="28-29" fill="none" stroke="#000" stroke-miterlimit="10" />
    <path d="M 289.63,806.84 C 1729.56,-372.23 2580.88,-249.02 3688.63,1314.27 L 3831.15,1195.11 C 2525.67,-287.1 1603.26,-350.62 147.16,926.02 Z" data-between="29-30" fill="none" stroke="#000" stroke-miterlimit="10" />
    <path d="M 147.16,926.02 C 1603.26,-350.62 2525.67,-287.1 3831.15,1195.11 L 3975.11,1066.29 C 2463.61,-321.24 1469.42,-320.27 3.29,1054.84 Z" data-between="30-31" fill="none" stroke="#000" stroke-miterlimit="10" />
  </g>
  <g id="waves-fills">
    <path d="M 1445.13,1797.14 C 1328.63,1416.74 1525.45,1085.13 2532.89,322.95 L 2517.11,286.82 C 1493.65,1117.42 1307.41,1461.96 1460.9,1833.3 Z" data-between="1-2" fill="none" stroke="#000" stroke-miterlimit="10" />
    <path d="M 1460.9,1833.3 C 1307.41,1461.96 1493.65,1117.42 2517.11,286.82 L 2497.46,251.88 C 1461.94,1151.85 1288.01,1508.54 1480.51,1868.27 Z" data-between="2-3" fill="none" stroke="#000" stroke-miterlimit="10" />
    <path d="M 1480.51,1868.27 C 1288.01,1508.54 1461.94,1151.85 2497.46,251.88 L 2473.77,218.4 C 1430.52,1188.41 1270.72,1556.36 1504.18,1901.79 Z" data-between="3-4" fill="none" stroke="#000" stroke-miterlimit="10" />
    <path d="M 1504.18,1901.79 C 1270.72,1556.36 1430.52,1188.41 2473.77,218.4 L 2445.85,186.65 C 1399.58,1227.08 1255.76,1605.28 1532.09,1933.58 Z" data-between="4-5" fill="none" stroke="#000" stroke-miterlimit="10" />
    <path d="M 1532.09,1933.58 C 1255.76,1605.28 1399.58,1227.08 2445.85,186.65 L 2413.52,156.92 C 1369.28,1267.79 1243.38,1655.1 1564.41,1963.33 Z" data-between="5-6" fill="none" stroke="#000" stroke-miterlimit="10" />
    <path d="M 1564.41,1963.33 C 1243.38,1655.1 1369.28,1267.79 2413.52,156.92 L 2376.6,129.53 C 1339.81,1310.54 1233.81,1705.69 1601.29,1990.77 Z" data-between="6-7" fill="none" stroke="#000" stroke-miterlimit="10" />
    <path d="M 1601.29,1990.77 C 1233.81,1705.69 1339.81,1310.54 2376.6,129.53 L 2334.95,104.77 C 1311.42,1355.23 1227.36,1756.81 1642.92,2015.56 Z" data-between="7-8" fill="none" stroke="#000" stroke-miterlimit="10" />
    <path d="M 1642.92,2015.56 C 1227.36,1756.81 1311.42,1355.23 2334.95,104.77 L 2288.42,82.98 C 1284.33,1401.79 1224.29,1808.26 1689.44,2037.39 Z" data-between="8-9" fill="none" stroke="#000" stroke-miterlimit="10" />
    <path d="M 1689.44,2037.39 C 1224.29,1808.26 1284.33,1401.79 2288.42,82.98 L 2236.88,64.49 C 1258.76,1450.13 1224.85,1859.79 1740.98,2055.92 Z" data-between="9-10" fill="none" stroke="#000" stroke-miterlimit="10" />
    <path d="M 1740.98,2055.92 C 1224.85,1859.79 1258.76,1450.13 2236.88,64.49 L 2180.2,49.64 C 1234.95,1500.13 1229.3,1911.16 1797.64,2070.81 Z" data-between="10-11" fill="none" stroke="#000" stroke-miterlimit="10" />
    <path d="M 1797.64,2070.81 C 1229.3,1911.16 1234.95,1500.13 2180.2,49.64 L 2118.29,38.78 C 1213.17,1551.68 1237.93,1962.11 1859.54,2081.72 Z" data-between="11-12" fill="none" stroke="#000" stroke-miterlimit="10" />
    <path d="M 1859.54,2081.72 C 1237.93,1962.11 1213.17,1551.68 2118.29,38.78 L 2051.07,32.27 C 1193.67,1604.62 1251.02,2012.32 1926.76,2088.28 Z" data-between="12-13" fill="none" stroke="#000" stroke-miterlimit="10" />
    <path d="M 1926.76,2088.28 C 1251.02,2012.32 1193.67,1604.62 2051.07,32.27 L 1978.47,30.46 C 1176.71,1658.79 1268.81,2061.49 1999.34,2090.13 Z" data-between="13-14" fill="none" stroke="#000" stroke-miterlimit="10" />
    <path d="M 1999.34,2090.13 C 1268.81,2061.49 1176.71,1658.79 1978.47,30.46 L 1900.47,33.72 C 1162.61,1714.01 1291.6,2109.31 2077.35,2086.92 Z" data-between="14-15" fill="none" stroke="#000" stroke-miterlimit="10" />
    <path d="M 2077.35,2086.92 C 1291.6,2109.31 1162.61,1714.01 1900.47,33.72 L 1817.04,42.41 C 1151.6,1770.08 1319.62,2155.42 2160.77,2078.27 Z" data-between="15-16" fill="none" stroke="#000" stroke-miterlimit="10" />
    <path d="M 2160.77,2078.27 C 1319.62,2155.42 1151.6,1770.08 1817.04,42.41 L 1728.21,56.9 C 1144.02,1826.78 1353.14,2199.46 2249.62,2063.82 Z" data-between="16-17" fill="none" stroke="#000" stroke-miterlimit="10" />
    <path d="M 2249.62,2063.82 C 1353.14,2199.46 1144.02,1826.78 1728.21,56.9 L 1634.01,77.55 C 1140.13,1883.87 1392.4,2241.05 2343.83,2043.21 Z" data-between="17-18" fill="none" stroke="#000" stroke-miterlimit="10" />
    <path d="M 2343.83,2043.21 C 1392.4,2241.05 1140.13,1883.87 1634.01,77.55 L 1534.51,104.72 C 1140.24,1941.09 1437.63,2279.81 2443.34,2016.08 Z" data-between="18-19" fill="none" stroke="#000" stroke-miterlimit="10" />
    <path d="M 2443.34,2016.08 C 1437.63,2279.81 1140.24,1941.09 1534.51,104.72 L 1429.82,138.77 C 1144.64,1998.17 1489.04,2315.32 2548.04,1982.08 Z" data-between="19-20" fill="none" stroke="#000" stroke-miterlimit="10" />
    <path d="M 2548.04,1982.08 C 1489.04,2315.32 1144.64,1998.17 1429.82,138.77 L 1320.09,180.04 C 1153.66,2054.8 1546.87,2347.15 2657.81,1940.85 Z" data-between="20-21" fill="none" stroke="#000" stroke-miterlimit="10" />
    <path d="M 2657.81,1940.85 C 1546.87,2347.15 1153.66,2054.8 1320.09,180.04 L 1205.47,228.86 C 1167.57,2110.67 1611.28,2374.87 2772.45,1892.07 Z" data-between="21-22" fill="none" stroke="#000" stroke-miterlimit="10" />
    <path d="M 2772.45,1892.07 C 1611.28,2374.87 1167.57,2110.67 1205.47,228.86 L 1086.19,285.56 C 1186.69,2165.42 1682.44,2398.04 2891.76,1835.41 Z" data-between="22-23" fill="none" stroke="#000" stroke-miterlimit="10" />
    <path d="M 2891.76,1835.41 C 1682.44,2398.04 1186.69,2165.42 1086.19,285.56 L 962.5,350.43 C 1211.31,2218.7 1760.53,2416.16 3015.5,1770.55 Z" data-between="23-24" fill="none" stroke="#000" stroke-miterlimit="10" />
    <path d="M 3015.5,1770.55 C 1760.53,2416.16 1211.31,2218.7 962.5,350.43 L 834.68,423.79 C 1241.69,2270.16 1845.62,2428.83 3143.34,1697.25 Z" data-between="24-25" fill="none" stroke="#000" stroke-miterlimit="10" />
    <path d="M 3143.34,1697.25 C 1845.62,2428.83 1241.69,2270.16 834.68,423.79 L 703.09,505.87 C 1278.16,2319.35 1937.87,2435.51 3274.99,1615.18 Z" data-between="25-26" fill="none" stroke="#000" stroke-miterlimit="10" />
    <path d="M 3274.99,1615.18 C 1937.87,2435.51 1278.16,2319.35 703.09,505.87 L 568.09,596.94 C 1320.97,2365.89 2037.32,2435.74 3410.05,1524.14 Z" data-between="26-27" fill="none" stroke="#000" stroke-miterlimit="10" />
    <path d="M 3410.05,1524.14 C 2037.32,2435.74 1320.97,2365.89 568.09,596.94 L 430.11,697.2 C 1370.36,2409.32 2143.99,2429.04 3548.08,1423.9 Z" data-between="27-28" fill="none" stroke="#000" stroke-miterlimit="10" />
    <path d="M 3548.08,1423.9 C 2143.99,2429.04 1370.36,2409.32 430.11,697.2 L 289.63,806.84 C 1426.62,2449.2 2257.93,2414.9 3688.63,1314.27 Z" data-between="28-29" fill="none" stroke="#000" stroke-miterlimit="10" />
    <path d="M 3688.63,1314.27 C 2257.93,2414.9 1426.62,2449.2 289.63,806.84 L 147.16,926.02 C 1489.93,2485.07 2379.07,2392.86 3831.15,1195.11 Z" data-between="29-30" fill="none" stroke="#000" stroke-miterlimit="10" />
    <path d="M 3831.15,1195.11 C 2379.07,2392.86 1489.93,2485.07 147.16,926.02 L 3.29,1054.84 C 1560.56,2516.42 2507.37,2362.42 3975.11,1066.29 Z" data-between="30-31" fill="none" stroke="#000" stroke-miterlimit="10" />
  </g>
</svg>
